<svg width="46" height="20" viewBox="0 0 46 20" fill="none" xmlns="http://www.w3.org/2000/svg">
<path d="M44 6V13C44 14.1 43.1 15 42 15H38V18L34 15H30C28.899 15 28 14.1 28 13V6C28 4.9 28.899 4 30 4H42C43.1 4 44 4.9 44 6Z" fill="white"/>
<path d="M4.35938 5.46875H5.83594V11.4512C5.83594 12.2676 5.58008 12.916 5.06836 13.3965C4.56055 13.877 3.88867 14.1172 3.05273 14.1172C2.16211 14.1172 1.47461 13.8926 0.990234 13.4434C0.505859 12.9941 0.263672 12.3691 0.263672 11.5684H1.74023C1.74023 12.0215 1.85156 12.3633 2.07422 12.5938C2.30078 12.8203 2.62695 12.9336 3.05273 12.9336C3.45117 12.9336 3.76758 12.8027 4.00195 12.541C4.24023 12.2754 4.35938 11.9102 4.35938 11.4453V5.46875ZM11.2383 13.3789C10.8203 13.8711 10.2266 14.1172 9.45703 14.1172C8.76953 14.1172 8.24805 13.916 7.89258 13.5137C7.54102 13.1113 7.36523 12.5293 7.36523 11.7676V7.66016H8.78906V11.75C8.78906 12.5547 9.12305 12.957 9.79102 12.957C10.4824 12.957 10.9492 12.709 11.1914 12.2129V7.66016H12.6152V14H11.2734L11.2383 13.3789ZM17.6191 12.2773C17.6191 12.0234 17.5137 11.8301 17.3027 11.6973C17.0957 11.5645 16.75 11.4473 16.2656 11.3457C15.7812 11.2441 15.377 11.1152 15.0527 10.959C14.3418 10.6152 13.9863 10.1172 13.9863 9.46484C13.9863 8.91797 14.2168 8.46094 14.6777 8.09375C15.1387 7.72656 15.7246 7.54297 16.4355 7.54297C17.1934 7.54297 17.8047 7.73047 18.2695 8.10547C18.7383 8.48047 18.9727 8.9668 18.9727 9.56445H17.5488C17.5488 9.29102 17.4473 9.06445 17.2441 8.88477C17.041 8.70117 16.7715 8.60938 16.4355 8.60938C16.123 8.60938 15.8672 8.68164 15.668 8.82617C15.4727 8.9707 15.375 9.16406 15.375 9.40625C15.375 9.625 15.4668 9.79492 15.6504 9.91602C15.834 10.0371 16.2051 10.1602 16.7637 10.2852C17.3223 10.4062 17.7598 10.5527 18.0762 10.7246C18.3965 10.8926 18.6328 11.0957 18.7852 11.334C18.9414 11.5723 19.0195 11.8613 19.0195 12.2012C19.0195 12.7715 18.7832 13.2344 18.3105 13.5898C17.8379 13.9414 17.2188 14.1172 16.4531 14.1172C15.9336 14.1172 15.4707 14.0234 15.0645 13.8359C14.6582 13.6484 14.3418 13.3906 14.1152 13.0625C13.8887 12.7344 13.7754 12.3809 13.7754 12.002H15.1582C15.1777 12.3379 15.3047 12.5977 15.5391 12.7812C15.7734 12.9609 16.084 13.0508 16.4707 13.0508C16.8457 13.0508 17.1309 12.9805 17.3262 12.8398C17.5215 12.6953 17.6191 12.5078 17.6191 12.2773ZM22.0488 6.11914V7.66016H23.168V8.71484H22.0488V12.2539C22.0488 12.4961 22.0957 12.6719 22.1895 12.7812C22.2871 12.8867 22.459 12.9395 22.7051 12.9395C22.8691 12.9395 23.0352 12.9199 23.2031 12.8809V13.9824C22.8789 14.0723 22.5664 14.1172 22.2656 14.1172C21.1719 14.1172 20.625 13.5137 20.625 12.3066V8.71484H19.582V7.66016H20.625V6.11914H22.0488Z" fill="white"/>
</svg>
